<svg xmlns="http://www.w3.org/2000/svg" viewBox="0 0 68.11 90"><defs><style>.cls-1{fill:#fff;}.cls-2{fill:none;stroke:#000;stroke-linecap:round;stroke-linejoin:round;stroke-width:3px;}</style></defs><g id="レイヤー_2" data-name="レイヤー 2"><g id="body"><rect width="68.11" height="68"/><path class="cls-1" d="M44.09,31.06h-7v-6.9a1.55,1.55,0,0,0-1.66-1.61H32.65a1.66,1.66,0,0,0-1.2.45A1.56,1.56,0,0,0,31,24.17v6.89H24a1.69,1.69,0,0,0-1.18.45,1.56,1.56,0,0,0-.46,1.17v2.64A1.55,1.55,0,0,0,24,36.94h7v6.89a1.55,1.55,0,0,0,1.66,1.62h2.83A1.65,1.65,0,0,0,36.66,45a1.61,1.61,0,0,0,.46-1.18V36.94h7a1.68,1.68,0,0,0,1.2-.45,1.56,1.56,0,0,0,.46-1.17V32.68A1.55,1.55,0,0,0,44.09,31.06Z"/><line class="cls-2" x1="34.06" y1="88.5" x2="34.06" y2="62.5"/></g></g></svg>